<mxfile host="app.diagrams.net" modified="2024-04-08T07:39:34.169Z" agent="Mozilla/5.0 (Windows NT 10.0; Win64; x64) AppleWebKit/537.36 (KHTML, like Gecko) Chrome/123.0.0.0 Safari/537.36" etag="ipUf9QRir4kgzDKFW8FE" version="24.2.2" type="device">
  <diagram name="Page-1" id="c7488fd3-1785-93aa-aadb-54a6760d102a">
    <mxGraphModel dx="1116" dy="437" grid="1" gridSize="10" guides="1" tooltips="1" connect="1" arrows="1" fold="1" page="1" pageScale="1" pageWidth="1100" pageHeight="850" background="none" math="0" shadow="0">
      <root>
        <mxCell id="0" />
        <mxCell id="1" parent="0" />
        <mxCell id="2b4e8129b02d487f-1" value="Feeder Box" style="swimlane;html=1;childLayout=stackLayout;horizontal=1;startSize=20;horizontalStack=0;rounded=0;shadow=0;labelBackgroundColor=none;strokeWidth=1;fontFamily=Verdana;fontSize=8;align=center;" parent="1" vertex="1">
          <mxGeometry x="180" y="70" width="680" height="620" as="geometry" />
        </mxCell>
        <mxCell id="2b4e8129b02d487f-2" value="Sensors/Arduino" style="swimlane;html=1;startSize=20;horizontal=0;" parent="2b4e8129b02d487f-1" vertex="1">
          <mxGeometry y="20" width="680" height="150" as="geometry" />
        </mxCell>
        <mxCell id="2b4e8129b02d487f-18" style="edgeStyle=orthogonalEdgeStyle;rounded=0;html=1;labelBackgroundColor=none;startArrow=none;startFill=0;startSize=5;endArrow=classicThin;endFill=1;endSize=5;jettySize=auto;orthogonalLoop=1;strokeWidth=1;fontFamily=Verdana;fontSize=8" parent="2b4e8129b02d487f-2" source="2b4e8129b02d487f-5" target="2b4e8129b02d487f-6" edge="1">
          <mxGeometry relative="1" as="geometry" />
        </mxCell>
        <mxCell id="3q7w-ghvlaHTdy6g01Ru-1" style="edgeStyle=orthogonalEdgeStyle;rounded=0;orthogonalLoop=1;jettySize=auto;html=1;entryX=0.5;entryY=0;entryDx=0;entryDy=0;" edge="1" parent="2b4e8129b02d487f-2" source="2b4e8129b02d487f-5" target="2b4e8129b02d487f-7">
          <mxGeometry relative="1" as="geometry" />
        </mxCell>
        <mxCell id="3q7w-ghvlaHTdy6g01Ru-2" style="edgeStyle=orthogonalEdgeStyle;rounded=0;orthogonalLoop=1;jettySize=auto;html=1;entryX=0.5;entryY=0;entryDx=0;entryDy=0;" edge="1" parent="2b4e8129b02d487f-2" source="2b4e8129b02d487f-5" target="2b4e8129b02d487f-9">
          <mxGeometry relative="1" as="geometry" />
        </mxCell>
        <mxCell id="2b4e8129b02d487f-5" value="" style="ellipse;whiteSpace=wrap;html=1;rounded=0;shadow=0;labelBackgroundColor=none;strokeWidth=1;fontFamily=Verdana;fontSize=8;align=center;" parent="2b4e8129b02d487f-2" vertex="1">
          <mxGeometry x="22" y="2" width="30" height="30" as="geometry" />
        </mxCell>
        <mxCell id="3q7w-ghvlaHTdy6g01Ru-4" style="edgeStyle=orthogonalEdgeStyle;rounded=0;orthogonalLoop=1;jettySize=auto;html=1;entryX=0;entryY=0.5;entryDx=0;entryDy=0;exitX=0.5;exitY=1;exitDx=0;exitDy=0;" edge="1" parent="2b4e8129b02d487f-2" source="2b4e8129b02d487f-6" target="3q7w-ghvlaHTdy6g01Ru-3">
          <mxGeometry relative="1" as="geometry" />
        </mxCell>
        <mxCell id="2b4e8129b02d487f-6" value="&lt;div&gt;Read&lt;/div&gt;Sensor Humidity&lt;div&gt;&lt;br&gt;&lt;/div&gt;" style="rounded=1;whiteSpace=wrap;html=1;shadow=0;labelBackgroundColor=none;strokeWidth=1;fontFamily=Verdana;fontSize=8;align=center;" parent="2b4e8129b02d487f-2" vertex="1">
          <mxGeometry x="120" y="43.49999999999997" width="70" height="37" as="geometry" />
        </mxCell>
        <mxCell id="3q7w-ghvlaHTdy6g01Ru-6" value="" style="edgeStyle=orthogonalEdgeStyle;rounded=0;orthogonalLoop=1;jettySize=auto;html=1;" edge="1" parent="2b4e8129b02d487f-2" source="2b4e8129b02d487f-7" target="3q7w-ghvlaHTdy6g01Ru-3">
          <mxGeometry relative="1" as="geometry" />
        </mxCell>
        <mxCell id="2b4e8129b02d487f-7" value="Read&amp;nbsp;&lt;div&gt;Sensor Distance&lt;/div&gt;" style="rounded=1;whiteSpace=wrap;html=1;shadow=0;labelBackgroundColor=none;strokeWidth=1;fontFamily=Verdana;fontSize=8;align=center;" parent="2b4e8129b02d487f-2" vertex="1">
          <mxGeometry x="230" y="43.49999999999997" width="70" height="37" as="geometry" />
        </mxCell>
        <mxCell id="3q7w-ghvlaHTdy6g01Ru-5" style="edgeStyle=orthogonalEdgeStyle;rounded=0;orthogonalLoop=1;jettySize=auto;html=1;entryX=1;entryY=0.5;entryDx=0;entryDy=0;exitX=0.5;exitY=1;exitDx=0;exitDy=0;" edge="1" parent="2b4e8129b02d487f-2" source="2b4e8129b02d487f-9" target="3q7w-ghvlaHTdy6g01Ru-3">
          <mxGeometry relative="1" as="geometry" />
        </mxCell>
        <mxCell id="2b4e8129b02d487f-9" value="Read&lt;div&gt;Sensor Temperature&lt;/div&gt;" style="rounded=1;whiteSpace=wrap;html=1;shadow=0;labelBackgroundColor=none;strokeWidth=1;fontFamily=Verdana;fontSize=8;align=center;" parent="2b4e8129b02d487f-2" vertex="1">
          <mxGeometry x="330" y="43.5" width="90" height="37" as="geometry" />
        </mxCell>
        <mxCell id="3q7w-ghvlaHTdy6g01Ru-3" value="Send&lt;div&gt;Data using Arduino&lt;/div&gt;" style="rounded=1;whiteSpace=wrap;html=1;shadow=0;labelBackgroundColor=none;strokeWidth=1;fontFamily=Verdana;fontSize=8;align=center;" vertex="1" parent="2b4e8129b02d487f-2">
          <mxGeometry x="220" y="100" width="90" height="37" as="geometry" />
        </mxCell>
        <mxCell id="2b4e8129b02d487f-3" value="Cloud platafform" style="swimlane;html=1;startSize=20;horizontal=0;" parent="2b4e8129b02d487f-1" vertex="1">
          <mxGeometry y="170" width="680" height="150" as="geometry" />
        </mxCell>
        <mxCell id="3q7w-ghvlaHTdy6g01Ru-8" value="" style="edgeStyle=orthogonalEdgeStyle;rounded=0;orthogonalLoop=1;jettySize=auto;html=1;" edge="1" parent="2b4e8129b02d487f-3" source="2b4e8129b02d487f-12" target="3q7w-ghvlaHTdy6g01Ru-7">
          <mxGeometry relative="1" as="geometry" />
        </mxCell>
        <mxCell id="2b4e8129b02d487f-12" value="Save&lt;div&gt;Data in Realtime DB&lt;/div&gt;" style="rounded=1;whiteSpace=wrap;html=1;shadow=0;labelBackgroundColor=none;strokeWidth=1;fontFamily=Verdana;fontSize=8;align=center;" parent="2b4e8129b02d487f-3" vertex="1">
          <mxGeometry x="50" y="50" width="90" height="37" as="geometry" />
        </mxCell>
        <mxCell id="3q7w-ghvlaHTdy6g01Ru-10" value="" style="edgeStyle=orthogonalEdgeStyle;rounded=0;orthogonalLoop=1;jettySize=auto;html=1;" edge="1" parent="2b4e8129b02d487f-3" source="3q7w-ghvlaHTdy6g01Ru-7" target="3q7w-ghvlaHTdy6g01Ru-9">
          <mxGeometry relative="1" as="geometry" />
        </mxCell>
        <mxCell id="3q7w-ghvlaHTdy6g01Ru-7" value="Run&lt;div&gt;Python script&amp;nbsp;&lt;/div&gt;&lt;div&gt;using Airflow&lt;/div&gt;" style="rounded=1;whiteSpace=wrap;html=1;shadow=0;labelBackgroundColor=none;strokeWidth=1;fontFamily=Verdana;fontSize=8;align=center;" vertex="1" parent="2b4e8129b02d487f-3">
          <mxGeometry x="170" y="50" width="90" height="37" as="geometry" />
        </mxCell>
        <mxCell id="3q7w-ghvlaHTdy6g01Ru-12" value="" style="edgeStyle=orthogonalEdgeStyle;rounded=0;orthogonalLoop=1;jettySize=auto;html=1;" edge="1" parent="2b4e8129b02d487f-3" source="3q7w-ghvlaHTdy6g01Ru-9" target="3q7w-ghvlaHTdy6g01Ru-11">
          <mxGeometry relative="1" as="geometry" />
        </mxCell>
        <mxCell id="3q7w-ghvlaHTdy6g01Ru-9" value="Extract and Send&lt;div&gt;Data using Python script&lt;/div&gt;" style="rounded=1;whiteSpace=wrap;html=1;shadow=0;labelBackgroundColor=none;strokeWidth=1;fontFamily=Verdana;fontSize=8;align=center;" vertex="1" parent="2b4e8129b02d487f-3">
          <mxGeometry x="295" y="50" width="90" height="37" as="geometry" />
        </mxCell>
        <mxCell id="3q7w-ghvlaHTdy6g01Ru-44" value="" style="edgeStyle=orthogonalEdgeStyle;rounded=0;orthogonalLoop=1;jettySize=auto;html=1;" edge="1" parent="2b4e8129b02d487f-3" source="3q7w-ghvlaHTdy6g01Ru-11" target="3q7w-ghvlaHTdy6g01Ru-43">
          <mxGeometry relative="1" as="geometry" />
        </mxCell>
        <mxCell id="3q7w-ghvlaHTdy6g01Ru-11" value="Save&lt;div&gt;Data in Historical DB&lt;/div&gt;" style="rounded=1;whiteSpace=wrap;html=1;shadow=0;labelBackgroundColor=none;strokeWidth=1;fontFamily=Verdana;fontSize=8;align=center;" vertex="1" parent="2b4e8129b02d487f-3">
          <mxGeometry x="420" y="50" width="90" height="37" as="geometry" />
        </mxCell>
        <mxCell id="3q7w-ghvlaHTdy6g01Ru-43" value="" style="strokeWidth=2;html=1;shape=mxgraph.flowchart.terminator;whiteSpace=wrap;" vertex="1" parent="2b4e8129b02d487f-3">
          <mxGeometry x="540" y="56" width="60" height="25" as="geometry" />
        </mxCell>
        <mxCell id="3q7w-ghvlaHTdy6g01Ru-13" style="edgeStyle=orthogonalEdgeStyle;rounded=0;orthogonalLoop=1;jettySize=auto;html=1;entryX=0.5;entryY=0;entryDx=0;entryDy=0;exitX=0.5;exitY=1;exitDx=0;exitDy=0;" edge="1" parent="2b4e8129b02d487f-1" source="3q7w-ghvlaHTdy6g01Ru-3" target="2b4e8129b02d487f-12">
          <mxGeometry relative="1" as="geometry" />
        </mxCell>
        <mxCell id="2b4e8129b02d487f-4" value="WebApp" style="swimlane;html=1;startSize=20;horizontal=0;" parent="2b4e8129b02d487f-1" vertex="1">
          <mxGeometry y="320" width="680" height="150" as="geometry" />
        </mxCell>
        <mxCell id="2b4e8129b02d487f-17" value="Read&lt;div&gt;Sensors Data&lt;/div&gt;" style="rounded=1;whiteSpace=wrap;html=1;shadow=0;labelBackgroundColor=none;strokeWidth=1;fontFamily=Verdana;fontSize=8;align=center;" parent="2b4e8129b02d487f-4" vertex="1">
          <mxGeometry x="60" y="26" width="70" height="37" as="geometry" />
        </mxCell>
        <mxCell id="3q7w-ghvlaHTdy6g01Ru-21" value="No" style="edgeStyle=orthogonalEdgeStyle;rounded=0;orthogonalLoop=1;jettySize=auto;html=1;" edge="1" parent="2b4e8129b02d487f-4" source="2b4e8129b02d487f-13" target="3q7w-ghvlaHTdy6g01Ru-14">
          <mxGeometry relative="1" as="geometry" />
        </mxCell>
        <mxCell id="3q7w-ghvlaHTdy6g01Ru-24" value="Yes" style="edgeStyle=orthogonalEdgeStyle;rounded=0;orthogonalLoop=1;jettySize=auto;html=1;exitX=0.5;exitY=1;exitDx=0;exitDy=0;exitPerimeter=0;" edge="1" parent="2b4e8129b02d487f-4" source="2b4e8129b02d487f-13" target="3q7w-ghvlaHTdy6g01Ru-23">
          <mxGeometry relative="1" as="geometry">
            <Array as="points">
              <mxPoint x="220" y="83" />
              <mxPoint x="340" y="83" />
            </Array>
          </mxGeometry>
        </mxCell>
        <mxCell id="2b4e8129b02d487f-13" value="Humidity is outside the range of 40% and 60%?" style="strokeWidth=1;html=1;shape=mxgraph.flowchart.decision;whiteSpace=wrap;rounded=1;shadow=0;labelBackgroundColor=none;fontFamily=Verdana;fontSize=8;align=center;" parent="2b4e8129b02d487f-4" vertex="1">
          <mxGeometry x="185" y="20" width="70" height="50" as="geometry" />
        </mxCell>
        <mxCell id="3q7w-ghvlaHTdy6g01Ru-22" value="No" style="edgeStyle=orthogonalEdgeStyle;rounded=0;orthogonalLoop=1;jettySize=auto;html=1;" edge="1" parent="2b4e8129b02d487f-4" source="3q7w-ghvlaHTdy6g01Ru-14" target="3q7w-ghvlaHTdy6g01Ru-15">
          <mxGeometry relative="1" as="geometry" />
        </mxCell>
        <mxCell id="3q7w-ghvlaHTdy6g01Ru-25" value="Yes" style="edgeStyle=orthogonalEdgeStyle;rounded=0;orthogonalLoop=1;jettySize=auto;html=1;" edge="1" parent="2b4e8129b02d487f-4" source="3q7w-ghvlaHTdy6g01Ru-14" target="3q7w-ghvlaHTdy6g01Ru-23">
          <mxGeometry relative="1" as="geometry" />
        </mxCell>
        <mxCell id="3q7w-ghvlaHTdy6g01Ru-14" value="Distance&lt;div&gt;greater than&amp;nbsp;&lt;/div&gt;&lt;div&gt;10 cm?&lt;/div&gt;" style="strokeWidth=1;html=1;shape=mxgraph.flowchart.decision;whiteSpace=wrap;rounded=1;shadow=0;labelBackgroundColor=none;fontFamily=Verdana;fontSize=8;align=center;" vertex="1" parent="2b4e8129b02d487f-4">
          <mxGeometry x="305" y="20" width="70" height="50" as="geometry" />
        </mxCell>
        <mxCell id="3q7w-ghvlaHTdy6g01Ru-27" value="Yes" style="edgeStyle=orthogonalEdgeStyle;rounded=0;orthogonalLoop=1;jettySize=auto;html=1;entryX=0.5;entryY=0;entryDx=0;entryDy=0;exitX=0.5;exitY=1;exitDx=0;exitDy=0;exitPerimeter=0;" edge="1" parent="2b4e8129b02d487f-4" source="3q7w-ghvlaHTdy6g01Ru-15" target="3q7w-ghvlaHTdy6g01Ru-23">
          <mxGeometry relative="1" as="geometry">
            <Array as="points">
              <mxPoint x="460" y="83" />
              <mxPoint x="340" y="83" />
            </Array>
          </mxGeometry>
        </mxCell>
        <mxCell id="3q7w-ghvlaHTdy6g01Ru-42" value="" style="edgeStyle=orthogonalEdgeStyle;rounded=0;orthogonalLoop=1;jettySize=auto;html=1;" edge="1" parent="2b4e8129b02d487f-4" source="3q7w-ghvlaHTdy6g01Ru-15" target="3q7w-ghvlaHTdy6g01Ru-41">
          <mxGeometry relative="1" as="geometry" />
        </mxCell>
        <mxCell id="3q7w-ghvlaHTdy6g01Ru-15" value="Temperature&lt;div&gt;greater than&amp;nbsp;&lt;/div&gt;&lt;div&gt;40 ºC?&lt;/div&gt;" style="strokeWidth=1;html=1;shape=mxgraph.flowchart.decision;whiteSpace=wrap;rounded=1;shadow=0;labelBackgroundColor=none;fontFamily=Verdana;fontSize=8;align=center;" vertex="1" parent="2b4e8129b02d487f-4">
          <mxGeometry x="425" y="20" width="70" height="50" as="geometry" />
        </mxCell>
        <mxCell id="3q7w-ghvlaHTdy6g01Ru-20" style="edgeStyle=orthogonalEdgeStyle;rounded=0;orthogonalLoop=1;jettySize=auto;html=1;entryX=0;entryY=0.5;entryDx=0;entryDy=0;entryPerimeter=0;" edge="1" parent="2b4e8129b02d487f-4" source="2b4e8129b02d487f-17" target="2b4e8129b02d487f-13">
          <mxGeometry relative="1" as="geometry" />
        </mxCell>
        <mxCell id="3q7w-ghvlaHTdy6g01Ru-23" value="Send&lt;div&gt;Notification&lt;/div&gt;" style="rounded=1;whiteSpace=wrap;html=1;shadow=0;labelBackgroundColor=none;strokeWidth=1;fontFamily=Verdana;fontSize=8;align=center;" vertex="1" parent="2b4e8129b02d487f-4">
          <mxGeometry x="305" y="103" width="70" height="37" as="geometry" />
        </mxCell>
        <mxCell id="3q7w-ghvlaHTdy6g01Ru-41" value="" style="strokeWidth=2;html=1;shape=mxgraph.flowchart.terminator;whiteSpace=wrap;" vertex="1" parent="2b4e8129b02d487f-4">
          <mxGeometry x="540" y="32.5" width="60" height="25" as="geometry" />
        </mxCell>
        <mxCell id="3q7w-ghvlaHTdy6g01Ru-19" value="" style="edgeStyle=orthogonalEdgeStyle;rounded=0;orthogonalLoop=1;jettySize=auto;html=1;" edge="1" parent="2b4e8129b02d487f-1" source="2b4e8129b02d487f-12" target="2b4e8129b02d487f-17">
          <mxGeometry relative="1" as="geometry" />
        </mxCell>
        <mxCell id="3q7w-ghvlaHTdy6g01Ru-28" value="Notification Service" style="swimlane;html=1;startSize=20;horizontal=0;" vertex="1" parent="2b4e8129b02d487f-1">
          <mxGeometry y="470" width="680" height="150" as="geometry" />
        </mxCell>
        <mxCell id="3q7w-ghvlaHTdy6g01Ru-29" value="Read&lt;div&gt;Sensors Data&lt;/div&gt;" style="rounded=1;whiteSpace=wrap;html=1;shadow=0;labelBackgroundColor=none;strokeWidth=1;fontFamily=Verdana;fontSize=8;align=center;" vertex="1" parent="3q7w-ghvlaHTdy6g01Ru-28">
          <mxGeometry x="60" y="26" width="70" height="37" as="geometry" />
        </mxCell>
        <mxCell id="3q7w-ghvlaHTdy6g01Ru-30" value="No" style="edgeStyle=orthogonalEdgeStyle;rounded=0;orthogonalLoop=1;jettySize=auto;html=1;" edge="1" parent="3q7w-ghvlaHTdy6g01Ru-28" source="3q7w-ghvlaHTdy6g01Ru-32" target="3q7w-ghvlaHTdy6g01Ru-35">
          <mxGeometry relative="1" as="geometry" />
        </mxCell>
        <mxCell id="3q7w-ghvlaHTdy6g01Ru-31" value="Yes" style="edgeStyle=orthogonalEdgeStyle;rounded=0;orthogonalLoop=1;jettySize=auto;html=1;exitX=0.5;exitY=1;exitDx=0;exitDy=0;exitPerimeter=0;" edge="1" parent="3q7w-ghvlaHTdy6g01Ru-28" source="3q7w-ghvlaHTdy6g01Ru-32" target="3q7w-ghvlaHTdy6g01Ru-39">
          <mxGeometry relative="1" as="geometry">
            <Array as="points">
              <mxPoint x="220" y="83" />
              <mxPoint x="340" y="83" />
            </Array>
          </mxGeometry>
        </mxCell>
        <mxCell id="3q7w-ghvlaHTdy6g01Ru-32" value="Humidity is outside the range of 40% and 60%?" style="strokeWidth=1;html=1;shape=mxgraph.flowchart.decision;whiteSpace=wrap;rounded=1;shadow=0;labelBackgroundColor=none;fontFamily=Verdana;fontSize=8;align=center;" vertex="1" parent="3q7w-ghvlaHTdy6g01Ru-28">
          <mxGeometry x="185" y="20" width="70" height="50" as="geometry" />
        </mxCell>
        <mxCell id="3q7w-ghvlaHTdy6g01Ru-33" value="No" style="edgeStyle=orthogonalEdgeStyle;rounded=0;orthogonalLoop=1;jettySize=auto;html=1;" edge="1" parent="3q7w-ghvlaHTdy6g01Ru-28" source="3q7w-ghvlaHTdy6g01Ru-35" target="3q7w-ghvlaHTdy6g01Ru-37">
          <mxGeometry relative="1" as="geometry" />
        </mxCell>
        <mxCell id="3q7w-ghvlaHTdy6g01Ru-34" value="Yes" style="edgeStyle=orthogonalEdgeStyle;rounded=0;orthogonalLoop=1;jettySize=auto;html=1;" edge="1" parent="3q7w-ghvlaHTdy6g01Ru-28" source="3q7w-ghvlaHTdy6g01Ru-35" target="3q7w-ghvlaHTdy6g01Ru-39">
          <mxGeometry relative="1" as="geometry" />
        </mxCell>
        <mxCell id="3q7w-ghvlaHTdy6g01Ru-35" value="Distance&lt;div&gt;greater than&amp;nbsp;&lt;/div&gt;&lt;div&gt;10 cm?&lt;/div&gt;" style="strokeWidth=1;html=1;shape=mxgraph.flowchart.decision;whiteSpace=wrap;rounded=1;shadow=0;labelBackgroundColor=none;fontFamily=Verdana;fontSize=8;align=center;" vertex="1" parent="3q7w-ghvlaHTdy6g01Ru-28">
          <mxGeometry x="305" y="20" width="70" height="50" as="geometry" />
        </mxCell>
        <mxCell id="3q7w-ghvlaHTdy6g01Ru-36" value="Yes" style="edgeStyle=orthogonalEdgeStyle;rounded=0;orthogonalLoop=1;jettySize=auto;html=1;entryX=0.5;entryY=0;entryDx=0;entryDy=0;exitX=0.5;exitY=1;exitDx=0;exitDy=0;exitPerimeter=0;" edge="1" parent="3q7w-ghvlaHTdy6g01Ru-28" source="3q7w-ghvlaHTdy6g01Ru-37" target="3q7w-ghvlaHTdy6g01Ru-39">
          <mxGeometry relative="1" as="geometry">
            <Array as="points">
              <mxPoint x="460" y="83" />
              <mxPoint x="340" y="83" />
            </Array>
          </mxGeometry>
        </mxCell>
        <mxCell id="3q7w-ghvlaHTdy6g01Ru-46" value="" style="edgeStyle=orthogonalEdgeStyle;rounded=0;orthogonalLoop=1;jettySize=auto;html=1;" edge="1" parent="3q7w-ghvlaHTdy6g01Ru-28" source="3q7w-ghvlaHTdy6g01Ru-37" target="3q7w-ghvlaHTdy6g01Ru-45">
          <mxGeometry relative="1" as="geometry" />
        </mxCell>
        <mxCell id="3q7w-ghvlaHTdy6g01Ru-37" value="Temperature&lt;div&gt;greater than&amp;nbsp;&lt;/div&gt;&lt;div&gt;40 ºC?&lt;/div&gt;" style="strokeWidth=1;html=1;shape=mxgraph.flowchart.decision;whiteSpace=wrap;rounded=1;shadow=0;labelBackgroundColor=none;fontFamily=Verdana;fontSize=8;align=center;" vertex="1" parent="3q7w-ghvlaHTdy6g01Ru-28">
          <mxGeometry x="425" y="20" width="70" height="50" as="geometry" />
        </mxCell>
        <mxCell id="3q7w-ghvlaHTdy6g01Ru-38" style="edgeStyle=orthogonalEdgeStyle;rounded=0;orthogonalLoop=1;jettySize=auto;html=1;entryX=0;entryY=0.5;entryDx=0;entryDy=0;entryPerimeter=0;" edge="1" parent="3q7w-ghvlaHTdy6g01Ru-28" source="3q7w-ghvlaHTdy6g01Ru-29" target="3q7w-ghvlaHTdy6g01Ru-32">
          <mxGeometry relative="1" as="geometry" />
        </mxCell>
        <mxCell id="3q7w-ghvlaHTdy6g01Ru-39" value="Send&lt;div&gt;Notification&lt;/div&gt;" style="rounded=1;whiteSpace=wrap;html=1;shadow=0;labelBackgroundColor=none;strokeWidth=1;fontFamily=Verdana;fontSize=8;align=center;" vertex="1" parent="3q7w-ghvlaHTdy6g01Ru-28">
          <mxGeometry x="305" y="103" width="70" height="37" as="geometry" />
        </mxCell>
        <mxCell id="3q7w-ghvlaHTdy6g01Ru-45" value="" style="strokeWidth=2;html=1;shape=mxgraph.flowchart.terminator;whiteSpace=wrap;" vertex="1" parent="3q7w-ghvlaHTdy6g01Ru-28">
          <mxGeometry x="540" y="32" width="60" height="25" as="geometry" />
        </mxCell>
        <mxCell id="3q7w-ghvlaHTdy6g01Ru-47" style="edgeStyle=orthogonalEdgeStyle;rounded=0;orthogonalLoop=1;jettySize=auto;html=1;entryX=0.5;entryY=1;entryDx=0;entryDy=0;entryPerimeter=0;" edge="1" parent="3q7w-ghvlaHTdy6g01Ru-28" source="3q7w-ghvlaHTdy6g01Ru-39" target="3q7w-ghvlaHTdy6g01Ru-45">
          <mxGeometry relative="1" as="geometry" />
        </mxCell>
        <mxCell id="3q7w-ghvlaHTdy6g01Ru-40" style="edgeStyle=orthogonalEdgeStyle;rounded=0;orthogonalLoop=1;jettySize=auto;html=1;entryX=0;entryY=0.5;entryDx=0;entryDy=0;exitX=0;exitY=0.5;exitDx=0;exitDy=0;" edge="1" parent="2b4e8129b02d487f-1" source="2b4e8129b02d487f-12" target="3q7w-ghvlaHTdy6g01Ru-29">
          <mxGeometry relative="1" as="geometry" />
        </mxCell>
      </root>
    </mxGraphModel>
  </diagram>
</mxfile>
